<svg width="354" height="354" viewBox="0 0 354 354" fill="none" xmlns="http://www.w3.org/2000/svg">
<g filter="url(#filter0_f_291_678)">
<circle cx="176.62" cy="176.62" r="76.6203" fill="#FFC701" fill-opacity="0.35"/>
</g>
<circle cx="176.62" cy="179.132" r="73.1083" fill="url(#paint0_linear_291_678)" stroke="url(#paint1_linear_291_678)" stroke-width="2"/>
<mask id="mask0_291_678" style="mask-type:alpha" maskUnits="userSpaceOnUse" x="102" y="146" width="149" height="108">
<path d="M250.729 179.132C250.729 220.061 217.549 253.241 176.62 253.241C135.692 253.241 102.512 220.061 102.512 179.132C102.512 138.204 130.039 147.731 170.968 147.731C211.897 147.731 250.729 138.204 250.729 179.132Z" fill="url(#paint2_linear_291_678)"/>
</mask>
<g mask="url(#mask0_291_678)">
<g filter="url(#filter1_f_291_678)">
<path d="M235.028 260.78C235.237 260.777 235.447 260.777 235.656 260.777C265.486 260.777 289.667 284.958 289.667 314.788C289.667 344.617 265.486 368.799 235.656 368.799C235.447 368.799 235.237 368.797 235.028 368.794V368.799H45.3615L45.3634 368.795C45.1535 368.798 44.943 368.799 44.7325 368.799C14.9032 368.799 -9.27814 344.618 -9.2782 314.789C-9.2782 284.959 14.9032 260.778 44.7325 260.778C70.4446 260.778 91.9595 278.744 97.4093 302.808L115.701 279.618L172.853 260.777H235.028V260.78Z" fill="#E18700"/>
</g>
</g>
<defs>
<filter id="filter0_f_291_678" x="0" y="0" width="353.241" height="353.241" filterUnits="userSpaceOnUse" color-interpolation-filters="sRGB">
<feFlood flood-opacity="0" result="BackgroundImageFix"/>
<feBlend mode="normal" in="SourceGraphic" in2="BackgroundImageFix" result="shape"/>
<feGaussianBlur stdDeviation="50" result="effect1_foregroundBlur_291_678"/>
</filter>
<filter id="filter1_f_291_678" x="-23.2782" y="246.777" width="326.945" height="136.022" filterUnits="userSpaceOnUse" color-interpolation-filters="sRGB">
<feFlood flood-opacity="0" result="BackgroundImageFix"/>
<feBlend mode="normal" in="SourceGraphic" in2="BackgroundImageFix" result="shape"/>
<feGaussianBlur stdDeviation="7" result="effect1_foregroundBlur_291_678"/>
</filter>
<linearGradient id="paint0_linear_291_678" x1="176.62" y1="105.024" x2="176.62" y2="253.241" gradientUnits="userSpaceOnUse">
<stop stop-color="#FFE600"/>
<stop offset="1" stop-color="#FF7A00"/>
</linearGradient>
<linearGradient id="paint1_linear_291_678" x1="176.62" y1="105.024" x2="176.62" y2="253.241" gradientUnits="userSpaceOnUse">
<stop stop-color="white"/>
<stop offset="1" stop-color="white" stop-opacity="0"/>
</linearGradient>
<linearGradient id="paint2_linear_291_678" x1="176.62" y1="105.024" x2="176.62" y2="253.241" gradientUnits="userSpaceOnUse">
<stop stop-color="#FFD600"/>
<stop offset="1" stop-color="#FF7A00"/>
</linearGradient>
</defs>
</svg>
