<svg width="31" height="25" viewBox="0 0 31 25" fill="none" xmlns="http://www.w3.org/2000/svg">
<path d="M19.9251 0.349325C22.4365 -0.194371 25.5522 -0.167194 29.792 0.890144C30.5226 1.07234 30.9668 1.81091 30.7842 2.53978C30.6016 3.26864 29.8613 3.71181 29.1306 3.52961C25.1888 2.54661 22.5091 2.57395 20.5036 3.00813C18.4918 3.44364 17.0457 4.30741 15.5136 5.24144L15.3989 5.31141C13.9221 6.21238 12.2868 7.21007 10.1262 7.56925C7.88521 7.94179 5.23795 7.61243 1.68269 6.19359C0.983472 5.91455 0.643386 5.12286 0.923104 4.42531C1.20281 3.72775 1.99641 3.38848 2.69563 3.66753C5.9584 4.96963 8.08377 5.15057 9.67793 4.88556C11.2964 4.61652 12.5303 3.87171 14.0915 2.91993C15.6275 1.98347 17.4198 0.891671 19.9251 0.349325Z" fill="#296399"/>
<path d="M29.792 6.33154C25.5522 5.27422 22.4365 5.24704 19.9251 5.79072C17.4198 6.33308 15.6275 7.42486 14.0915 8.36133C12.5303 9.31311 11.2964 10.0579 9.67793 10.327C8.08377 10.5919 5.9584 10.411 2.69563 9.10893C1.99641 8.82989 1.20281 9.16915 0.923104 9.86674C0.643386 10.5642 0.983472 11.356 1.68269 11.635C5.23795 13.0538 7.88521 13.3832 10.1262 13.0106C12.2868 12.6514 13.9221 11.6538 15.3989 10.7528L15.5136 10.6829C17.0457 9.74879 18.4918 8.88503 20.5036 8.44953C22.5091 8.01535 25.1888 7.98802 29.1306 8.97101C29.8613 9.15321 30.6016 8.71005 30.7842 7.98117C30.9668 7.25231 30.5226 6.51374 29.792 6.33154Z" fill="#296399"/>
<path fill-rule="evenodd" clip-rule="evenodd" d="M25.3704 9.58191C24.897 9.58191 24.5025 9.82641 24.2272 10.1964C24.1305 10.327 23.907 10.6327 23.6101 11.0606C23.2152 11.6297 22.6867 12.4205 22.1558 13.3031C21.6275 14.1815 21.0825 15.1747 20.6655 16.1452C20.2662 17.0747 19.9147 18.0839 19.916 19.1071C19.917 19.3942 19.9513 19.6828 19.9985 19.9655C20.0773 20.4373 20.2374 21.0869 20.5712 21.7531C20.9078 22.4247 21.434 23.1376 22.2489 23.6795C23.0724 24.2271 24.1091 24.5457 25.3704 24.5457C26.6318 24.5457 27.6684 24.2271 28.4918 23.6795C29.3067 23.1376 29.8331 22.4246 30.1696 21.7532C30.5034 21.0869 30.6637 20.4373 30.7425 19.9656C30.7898 19.6825 30.8246 19.3931 30.825 19.1057C30.8254 18.0826 30.4748 17.0748 30.0754 16.1452C29.6585 15.1747 29.1135 14.1815 28.5852 13.3031C28.0543 12.4205 27.5257 11.6297 27.1308 11.0606C26.8339 10.6327 26.6103 10.327 26.5137 10.1964C26.2384 9.82641 25.8438 9.58191 25.3704 9.58191ZM27.5688 17.2171C27.2187 16.4021 26.741 15.5249 26.2466 14.7029C25.9459 14.203 25.6444 13.7323 25.3704 13.3194C25.0965 13.7323 24.795 14.203 24.4943 14.7029C24 15.5249 23.5223 16.4021 23.1723 17.2171L23.1523 17.2631C22.9114 17.8235 22.6267 18.4859 22.6436 19.1049C22.6599 19.5944 22.7918 20.0998 23.0107 20.5364C23.1853 20.8852 23.4262 21.1926 23.7618 21.4158C24.0889 21.6333 24.5863 21.8249 25.3704 21.8249C26.1545 21.8249 26.652 21.6333 26.9791 21.4158C27.3147 21.1926 27.5555 20.8851 27.7303 20.5364C27.9492 20.0998 28.0811 19.5944 28.0974 19.1047C28.1145 18.4861 27.8296 17.8236 27.5887 17.2634L27.5688 17.2171Z" fill="#296399"/>
<path d="M18.7292 11.6331C19.766 11.2975 20.5608 12.3765 20.0733 13.3491C19.8507 13.7935 19.6002 14.1716 19.1022 14.3475C17.7697 14.8183 16.666 15.4811 15.5136 16.1837L15.3989 16.2536C13.9221 17.1546 12.2868 18.1522 10.1262 18.5114C7.88521 18.884 5.23797 18.5546 1.68269 17.1358C0.98347 16.8568 0.643389 16.065 0.923102 15.3675C1.20282 14.6699 1.99641 14.3306 2.69564 14.6098C5.9584 15.9118 8.08378 16.0927 9.67793 15.8278C11.2964 15.5587 12.5303 14.8139 14.0915 13.8621C15.5751 12.9576 17.102 12.1599 18.7292 11.6331Z" fill="#296399"/>
</svg>
