<svg width="33" height="25" viewBox="0 0 33 25" fill="none" xmlns="http://www.w3.org/2000/svg">
<path d="M8.02664 24.1277C6.23575 24.1432 4.50704 23.4717 3.19622 22.2513C1.8854 21.031 1.09219 19.3546 0.979804 17.5672C0.867418 15.7798 1.44441 14.0173 2.59205 12.6423C3.73969 11.2674 5.37068 10.3847 7.1494 10.1757C6.60458 8.12485 6.89679 5.94153 7.96174 4.10608C9.02669 2.27064 10.7772 0.933419 12.828 0.388598C14.8789 -0.156223 17.0623 0.135983 18.8977 1.20093C20.7331 2.26589 22.0704 4.01635 22.6152 6.06724C23.8363 5.88477 25.0819 5.95552 26.2746 6.27507C27.4672 6.59463 28.5813 7.15616 29.5476 7.92473C30.5139 8.69331 31.3117 9.65249 31.8915 10.7426C32.4712 11.8327 32.8204 13.0305 32.9174 14.2614C33.0144 15.4922 32.8571 16.7299 32.4553 17.8974C32.0535 19.0649 31.4157 20.1372 30.5817 21.0476C29.7477 21.9581 28.7353 22.6872 27.6075 23.1896C26.4796 23.692 25.2605 23.957 24.0258 23.9681L8.02664 24.1277Z" fill="currentColor"/>
</svg>
