<svg width="29" height="26" viewBox="0 0 29 26" fill="none" xmlns="http://www.w3.org/2000/svg">
<path d="M11.7693 10.0282L2.12087 10.1362C1.91346 10.1385 1.70772 10.0998 1.51525 10.0224C1.32279 9.94497 1.14751 9.83031 0.999522 9.68499C0.851535 9.53967 0.733558 9.36658 0.652747 9.17567C0.571935 8.98477 0.529872 8.77982 0.528633 8.57261C0.524895 8.36542 0.562023 8.15958 0.638227 7.96692C0.71443 7.77426 0.828218 7.59856 0.972674 7.44997C1.11713 7.30138 1.28961 7.18281 1.48016 7.10109C1.67071 7.01937 1.87547 6.97613 2.08288 6.97381L11.7313 6.86585C12.1997 6.86062 12.6469 6.67033 12.9751 6.33661C13.3032 6.0029 13.4857 5.55288 13.4826 5.08491C13.477 4.61533 13.2847 4.16709 12.9483 3.83877C12.612 3.51044 12.1589 3.32893 11.6889 3.33419L8.76985 3.36685C8.35006 3.37155 7.94543 3.20946 7.64503 2.91625C7.34464 2.62304 7.17293 2.22274 7.16789 1.80338C7.16285 1.38402 7.3249 0.979965 7.61817 0.680112C7.91144 0.380259 8.31207 0.20916 8.73186 0.204463L11.6509 0.171801C12.9589 0.159674 14.2189 0.666478 15.154 1.58098C16.0891 2.49547 16.6231 3.74293 16.6388 5.0496C16.652 6.35464 16.1468 7.61132 15.2342 8.54445C14.3215 9.47758 13.0756 10.0111 11.7693 10.0282Z" fill="currentColor"/>
<path d="M23.3858 14.468L2.16752 14.6972C1.96004 14.6994 1.75423 14.6607 1.56171 14.5832C1.36918 14.5058 1.19384 14.3911 1.04581 14.2458C0.897769 14.1004 0.779751 13.9274 0.69891 13.7365C0.61807 13.5456 0.575989 13.3408 0.574745 13.1336C0.571002 12.9265 0.608138 12.7208 0.684362 12.5282C0.760586 12.3357 0.874405 12.1601 1.0189 12.0116C1.1634 11.8632 1.33594 11.7447 1.52655 11.6631C1.71715 11.5815 1.92198 11.5383 2.12946 11.5361L23.3478 11.3069C23.8717 11.3012 24.3715 11.0887 24.7384 10.7157C25.1053 10.3428 25.3092 9.83985 25.3054 9.31685C25.2966 8.7939 25.0807 8.29547 24.7049 7.93056C24.3291 7.56566 23.8242 7.36397 23.3004 7.36964L20.5887 7.39893C20.1688 7.40347 19.764 7.24129 19.4635 6.94808C19.1631 6.65488 18.9915 6.25464 18.9865 5.83545C18.984 5.62789 19.0223 5.42193 19.0995 5.22931C19.1768 5.03668 19.2914 4.86119 19.4366 4.71283C19.5819 4.56448 19.755 4.44615 19.9461 4.36464C20.1373 4.28314 20.3427 4.24004 20.5507 4.2378L23.3095 4.208C23.9843 4.20071 24.6542 4.32617 25.2808 4.57723C25.9073 4.82829 26.4783 5.20001 26.9612 5.6712C27.4441 6.14238 27.8295 6.70381 28.0953 7.32339C28.361 7.94297 28.502 8.60858 28.5101 9.28223C28.5183 9.95988 28.3917 10.6323 28.138 11.2606C27.8844 11.8889 27.5085 12.4606 27.0321 12.9428C26.5556 13.4249 25.988 13.808 25.3622 14.0698C24.7363 14.3316 24.0647 14.4669 23.3858 14.468Z" fill="currentColor"/>
<path d="M14.7761 25.0044L10.7665 25.0487C10.3466 25.0534 9.94196 24.8913 9.64152 24.5981C9.34108 24.3049 9.16934 23.9046 9.16429 23.4853C9.16179 23.2781 9.20046 23.0725 9.27782 22.8804C9.35519 22.6882 9.46974 22.5132 9.6151 22.3656C9.76046 22.2179 9.9337 22.1004 10.1248 22.0199C10.3158 21.9393 10.5211 21.8973 10.7285 21.8963L14.7381 21.8519C15.2216 21.844 15.6821 21.6453 16.019 21.2992C16.3559 20.953 16.5418 20.4876 16.536 20.0047C16.5302 19.5226 16.333 19.0624 15.9876 18.7253C15.6421 18.3882 15.1769 18.2018 14.6942 18.2072L2.03965 18.3472C1.62233 18.3518 1.22008 18.1907 0.921436 17.8992C0.622795 17.6078 0.452313 17.2099 0.447293 16.7931C0.443548 16.586 0.480675 16.3801 0.556882 16.1875C0.633089 15.9949 0.746885 15.8193 0.891355 15.6707C1.03582 15.5222 1.20832 15.4036 1.39889 15.3219C1.58946 15.2403 1.79425 15.197 2.00168 15.1947L14.6562 15.0547C15.977 15.0401 17.25 15.5494 18.196 16.4709C19.142 17.3923 19.6837 18.6506 19.7021 19.9696C19.7155 21.2895 19.2044 22.5605 18.2812 23.5041C17.3579 24.4478 16.0976 24.9872 14.7761 25.0044Z" fill="currentColor"/>
</svg>
