<svg width="28" height="29" viewBox="0 0 28 29" fill="none" xmlns="http://www.w3.org/2000/svg">
<path d="M23.3169 28.2606H19.5488C19.0496 28.2591 18.5712 28.0601 18.2182 27.7071C17.8652 27.3541 17.6663 26.8757 17.6648 26.3765V19.7824C17.1656 19.781 16.6872 19.582 16.3342 19.229C15.9812 18.876 15.7822 18.3976 15.7808 17.8984V12.2463C15.7739 11.8733 15.8423 11.5028 15.982 11.1568C16.1216 10.8108 16.3295 10.4966 16.5933 10.2328C16.8571 9.96898 17.1713 9.76107 17.5173 9.62146C17.8632 9.48186 18.2338 9.41344 18.6068 9.42027H24.2589C24.6319 9.41344 25.0024 9.48186 25.3484 9.62146C25.6944 9.76107 26.0086 9.96898 26.2724 10.2328C26.5362 10.4966 26.7441 10.8108 26.8837 11.1568C27.0233 11.5028 27.0918 11.8733 27.0849 12.2463V17.8984C27.0835 18.3976 26.8845 18.876 26.5315 19.229C26.1785 19.582 25.7001 19.781 25.2009 19.7824V26.3765C25.1994 26.8757 25.0005 27.3541 24.6475 27.7071C24.2945 28.0601 23.8161 28.2591 23.3169 28.2606ZM18.6068 11.3043C18.4811 11.2967 18.3553 11.3159 18.2375 11.3605C18.1198 11.4052 18.0129 11.4743 17.9238 11.5634C17.8348 11.6524 17.7657 11.7593 17.721 11.877C17.6764 11.9948 17.6572 12.1206 17.6648 12.2463V17.8984H19.5488V26.3765H23.3169V17.8984H25.2009V12.2463C25.2085 12.1206 25.1893 11.9948 25.1447 11.877C25.1 11.7593 25.0309 11.6524 24.9418 11.5634C24.8528 11.4743 24.7459 11.4052 24.6282 11.3605C24.5104 11.3159 24.3846 11.2967 24.2589 11.3043H18.6068Z" fill="#296399"/>
<path d="M21.4333 8.47825C20.688 8.47825 19.9595 8.25726 19.3399 7.84322C18.7202 7.42918 18.2373 6.84069 17.9521 6.15217C17.6669 5.46365 17.5923 4.70602 17.7376 3.97509C17.883 3.24415 18.2419 2.57275 18.7689 2.04578C19.2959 1.51881 19.9673 1.15993 20.6982 1.01454C21.4291 0.869151 22.1867 0.943771 22.8753 1.22897C23.5638 1.51416 24.1523 1.99712 24.5663 2.61678C24.9804 3.23643 25.2014 3.96495 25.2014 4.7102C25.1984 5.70865 24.8005 6.66536 24.0945 7.37138C23.3885 8.07739 22.4317 8.47532 21.4333 8.47825ZM21.4333 2.82617C21.0607 2.82617 20.6964 2.93666 20.3866 3.14368C20.0768 3.3507 19.8353 3.64495 19.6927 3.98921C19.5501 4.33347 19.5128 4.71229 19.5855 5.07775C19.6582 5.44322 19.8376 5.77892 20.1011 6.04241C20.3646 6.30589 20.7003 6.48533 21.0657 6.55802C21.4312 6.63072 21.81 6.59341 22.1543 6.45081C22.4985 6.30821 22.7928 6.06673 22.9998 5.75691C23.2068 5.44708 23.3173 5.08282 23.3173 4.7102C23.3159 4.21097 23.1169 3.73261 22.7639 3.37961C22.4109 3.0266 21.9325 2.82764 21.4333 2.82617Z" fill="#296399"/>
<path d="M18.825 2.00012H23.825V7.00012H18.825V2.00012Z" fill="#296399"/>
<path d="M8.2451 19.0136V11.3043H6.36107V19.0136C5.73255 19.2359 5.20282 19.6731 4.8655 20.2481C4.52819 20.8232 4.40501 21.4989 4.51775 22.156C4.63048 22.813 4.97186 23.409 5.48155 23.8387C5.99125 24.2684 6.63644 24.5041 7.30309 24.5041C7.96974 24.5041 8.61493 24.2684 9.12462 23.8387C9.63432 23.409 9.9757 22.813 10.0884 22.156C10.2012 21.4989 10.078 20.8232 9.74067 20.2481C9.40336 19.6731 8.87363 19.2359 8.2451 19.0136Z" fill="#296399"/>
<path d="M7.30303 28.2605C6.00509 28.2618 4.73569 27.8796 3.65419 27.162C2.57269 26.4443 1.7273 25.4232 1.22413 24.2267C0.720964 23.0303 0.582451 21.7118 0.82598 20.4369C1.06951 19.1621 1.68423 17.9875 2.59296 17.0608V6.59422C2.59296 5.34504 3.0892 4.14701 3.97251 3.2637C4.85582 2.38039 6.05384 1.88415 7.30303 1.88415C8.55222 1.88415 9.75025 2.38039 10.6336 3.2637C11.5169 4.14701 12.0131 5.34504 12.0131 6.59422V17.0608C12.9218 17.9875 13.5366 19.1621 13.7801 20.4369C14.0236 21.7118 13.8851 23.0303 13.3819 24.2267C12.8788 25.4232 12.0334 26.4443 10.9519 27.162C9.87038 27.8796 8.60098 28.2618 7.30303 28.2605ZM7.30303 3.76818C6.55377 3.769 5.83544 4.06701 5.30563 4.59682C4.77582 5.12663 4.47781 5.84496 4.47699 6.59422V17.8828L4.16424 18.1638C3.45291 18.7995 2.95141 19.6363 2.72614 20.5634C2.50087 21.4905 2.56245 22.4641 2.90271 23.3554C3.24298 24.2467 3.8459 25.0137 4.63166 25.5548C5.41742 26.0959 6.34898 26.3856 7.30303 26.3856C8.25708 26.3856 9.18864 26.0959 9.9744 25.5548C10.7602 25.0137 11.3631 24.2467 11.7034 23.3554C12.0436 22.4641 12.1052 21.4905 11.8799 20.5634C11.6547 19.6363 11.1532 18.7995 10.4418 18.1638L10.1291 17.8828V6.59422C10.1283 5.84496 9.83024 5.12663 9.30044 4.59682C8.77063 4.06701 8.05229 3.769 7.30303 3.76818Z" fill="#296399"/>
<path d="M16.825 10.0001H25.825V18.0001H16.825V10.0001Z" fill="#296399"/>
<path d="M18.825 18.0001H23.825V27.0001H18.825V18.0001Z" fill="#296399"/>
</svg>
