<svg width="39" height="22" viewBox="0 0 39 22" fill="none" xmlns="http://www.w3.org/2000/svg">
<path d="M9.15698 21.3361C7.55165 21.3361 6.12365 21.0001 4.87298 20.3281C3.64098 19.6561 2.67031 18.7321 1.96098 17.5561C1.25165 16.3801 0.896981 15.0455 0.896981 13.5521V0.14012H4.70498V13.3561C4.70498 14.2148 4.89165 14.9895 5.26498 15.6801C5.65698 16.3708 6.18898 16.9121 6.86098 17.3041C7.53298 17.6775 8.29831 17.8641 9.15698 17.8641C10.0343 17.8641 10.7996 17.6775 11.453 17.3041C12.125 16.9121 12.6476 16.3708 13.021 15.6801C13.413 14.9895 13.609 14.2148 13.609 13.3561V0.14012H17.417V13.5521C17.417 15.0455 17.0623 16.3801 16.353 17.5561C15.6436 18.7321 14.6636 19.6561 13.413 20.3281C12.181 21.0001 10.7623 21.3361 9.15698 21.3361ZM26.7906 21.0001L19.5106 0.14012H23.6546L29.3666 17.4161H28.5546L34.2666 0.14012H38.4106L31.1586 21.0001H26.7906Z" fill="#296399"/>
</svg>
