<svg width="26" height="29" viewBox="0 0 26 29" fill="none" xmlns="http://www.w3.org/2000/svg">
<path d="M25.3802 19.8184L23.1931 18.5351L25.0957 18.0162C25.5644 17.8879 25.8433 17.3969 25.715 16.9226L25.4863 16.0578C25.3635 15.5836 24.8781 15.299 24.4094 15.4274L19.9626 16.6381L15.9565 14.2836L19.9682 11.929L24.415 13.1398C24.8837 13.2681 25.3635 12.9835 25.4918 12.5093L25.7206 11.6445C25.8433 11.1702 25.5699 10.6792 25.1013 10.5509L23.1987 10.032L25.3858 8.74873C25.8043 8.50323 25.9493 7.95644 25.7094 7.52682L25.2687 6.75128C25.0287 6.32166 24.4875 6.17659 24.0691 6.42209L21.8819 7.70537L22.3896 5.76929C22.5124 5.29504 22.239 4.80404 21.7703 4.67572L20.9222 4.44696C20.4536 4.31863 19.9737 4.60318 19.8454 5.07744L18.657 9.59681L14.6453 11.9513V7.23669L17.8982 3.92807C18.2385 3.58214 18.2385 3.01304 17.8982 2.66711L17.2789 2.03663C16.9385 1.6907 16.3806 1.6907 16.0402 2.03663L14.6509 3.45381V0.892837C14.6509 0.401844 14.2604 0.00012207 13.7749 0.00012207H12.899C12.4136 0.00012207 12.023 0.401844 12.023 0.892837V3.46497L10.6337 2.04779C10.2934 1.70186 9.73541 1.70186 9.39507 2.04779L8.75343 2.67827C8.41308 3.02419 8.41308 3.5933 8.75343 3.93923L12.0063 7.24785V11.9625L7.99462 9.60797L6.80619 5.0886C6.68344 4.61434 6.19803 4.32979 5.72935 4.45812L4.88128 4.68688C4.4126 4.8152 4.13363 5.3062 4.26195 5.78045L4.76969 7.71653L2.58253 6.43325C2.16407 6.18775 1.62845 6.33282 1.38295 6.76244L0.942171 7.53798C0.702254 7.9676 0.84174 8.50881 1.26578 8.75989L3.45293 10.0432L1.55033 10.5509C1.08166 10.6792 0.802684 11.1702 0.931012 11.6445L1.15977 12.5093C1.28252 12.9835 1.76793 13.2681 2.23661 13.1398L6.68344 11.929L10.6951 14.2836L6.68344 16.6381L2.23661 15.4274C1.76793 15.299 1.2881 15.5836 1.15977 16.0578L0.931012 16.9226C0.808264 17.3969 1.08166 17.8879 1.55033 18.0162L3.45293 18.5351L1.26578 19.8184C0.84732 20.0639 0.702254 20.6107 0.942171 21.0403L1.38295 21.8158C1.62287 22.2455 2.16407 22.3905 2.58253 22.145L4.76969 20.8618L4.26195 22.7978C4.13921 23.2721 4.4126 23.7631 4.88128 23.8914L5.72935 24.1202C6.19803 24.2485 6.67786 23.9639 6.80619 23.4897L7.99462 18.9703L12.0063 16.6158V21.3304L8.75343 24.6391C8.41308 24.985 8.41308 25.5541 8.75343 25.9L9.37275 26.5305C9.7131 26.8764 10.271 26.8764 10.6114 26.5305L12.0007 25.1133V27.6743C12.0007 28.1653 12.3912 28.567 12.8767 28.567H13.7526C14.238 28.567 14.6286 28.1653 14.6286 27.6743V25.1022L16.0179 26.5193C16.3582 26.8653 16.9162 26.8653 17.2565 26.5193L17.8759 25.8889C18.2162 25.5429 18.2162 24.9738 17.8759 24.6279L14.623 21.3193V16.6046L18.6347 18.9592L19.8231 23.4785C19.9458 23.9528 20.4313 24.2373 20.8999 24.109L21.748 23.8802C22.2167 23.7519 22.4957 23.2609 22.3673 22.7867L21.8596 20.8506L24.0468 22.1339C24.4652 22.3794 25.0008 22.2343 25.2463 21.8047L25.6871 21.0291C25.9438 20.6107 25.8043 20.0639 25.3802 19.8184Z" fill="#296399"/>
</svg>
