<svg width="32" height="31" viewBox="0 0 32 31" fill="none" xmlns="http://www.w3.org/2000/svg">
<path d="M6.64433 15.1199C6.51065 14.8884 6.29048 14.7194 6.03224 14.6501C5.77399 14.5809 5.49881 14.617 5.2672 14.7506L2.13415 16.5575C1.84086 16.7256 1.58466 16.9514 1.38101 17.2213C1.17736 17.4911 1.03049 17.7994 0.949254 18.1275C0.792936 18.7782 0.895773 19.4641 1.23603 20.0404L1.51082 20.5156C1.84535 21.094 2.39585 21.516 3.04136 21.6888C3.68687 21.8616 4.37456 21.771 4.95333 21.437L8.08386 19.6326C8.19865 19.5664 8.29928 19.4783 8.38 19.3733C8.46072 19.2682 8.51996 19.1483 8.55431 19.0204C8.58867 18.8924 8.59748 18.759 8.58024 18.6276C8.563 18.4962 8.52004 18.3696 8.45383 18.2548L6.64433 15.1199Z" fill="#1E293B" fill-opacity="0.75"/>
<path d="M23.9945 27.1455L18.0625 15.3723C18.048 15.3435 18.0451 15.3103 18.0544 15.2795C18.0637 15.2487 18.0844 15.2226 18.1122 15.2065L18.6354 14.9046C18.7501 14.8384 18.8507 14.7503 18.9313 14.6452C19.012 14.5401 19.0712 14.4202 19.1055 14.2923C19.1398 14.1643 19.1485 14.0309 19.1312 13.8995C19.1139 13.7682 19.0709 13.6416 19.0047 13.5269L16.0091 8.33796C15.9429 8.22317 15.8548 8.12254 15.7497 8.04182C15.6447 7.9611 15.5248 7.90187 15.3968 7.86751C15.2689 7.83315 15.1354 7.82434 15.0041 7.84158C14.8727 7.85883 14.746 7.90178 14.6313 7.96799L9.18705 11.1067C8.89965 11.2713 8.64778 11.4914 8.44601 11.754C8.24424 12.0167 8.09659 12.3168 8.01161 12.6369C7.95381 12.8369 7.92473 13.044 7.92526 13.2521C7.92904 13.7311 8.50511 14.6828 9.0673 15.6647C9.67173 16.7204 10.2799 17.8 10.7274 18.0691C11.0123 18.2406 11.5153 18.378 11.9382 18.378H11.9911L6.99184 29.1932C6.93614 29.3135 6.90469 29.4435 6.89928 29.5759C6.89387 29.7083 6.91461 29.8405 6.96031 29.9649C7.00602 30.0892 7.07579 30.2034 7.16564 30.3008C7.25549 30.3982 7.36365 30.4769 7.48395 30.5325C7.60425 30.5881 7.73433 30.6194 7.86674 30.6247C7.99915 30.63 8.1313 30.6091 8.25564 30.5632C8.37998 30.5174 8.49406 30.4475 8.59137 30.3576C8.68868 30.2676 8.76731 30.1594 8.82276 30.039L14.7271 17.2668C14.7705 17.1723 14.8423 17.0936 14.9326 17.0418L16.1433 16.3435C16.1582 16.335 16.1746 16.3296 16.1916 16.3277C16.2087 16.3258 16.2259 16.3273 16.2423 16.3323C16.2587 16.3372 16.2739 16.3455 16.287 16.3565C16.3001 16.3675 16.3108 16.3811 16.3185 16.3964L22.1932 28.0562C22.3136 28.2951 22.5239 28.4764 22.7779 28.5602C23.0319 28.644 23.3088 28.6234 23.5477 28.5031C23.7865 28.3827 23.9678 28.1724 24.0516 27.9184C24.1354 27.6644 24.1149 27.3875 23.9945 27.1487V27.1455Z" fill="#1E293B" fill-opacity="0.75"/>
<path d="M30.7613 6.65807L27.8545 1.63239C27.519 1.05478 26.9684 0.633561 26.3232 0.460879C25.6779 0.288196 24.9905 0.378112 24.4114 0.710954L18.5285 4.10049C18.241 4.26503 17.9891 4.48503 17.7873 4.74772C17.5855 5.01041 17.4379 5.31056 17.353 5.63075C17.2695 5.90071 17.2423 6.18494 17.273 6.46585C17.3827 7.26123 18.0923 8.38183 18.9375 9.86231C19.7934 11.3579 20.7596 13.0439 21.2651 13.4088C21.6924 13.7108 22.2028 13.8731 22.7261 13.8733C23.1669 13.8734 23.5999 13.7573 23.9815 13.5367L29.8657 10.1453C30.1584 9.97759 30.4142 9.75247 30.6177 9.48343C30.8212 9.2144 30.9682 8.90701 31.05 8.57973C31.2074 7.92602 31.1039 7.23667 30.7613 6.65807Z" fill="#1E293B" fill-opacity="0.75"/>
</svg>
