<svg width="50" height="50" viewBox="0 0 50 50" fill="none" xmlns="http://www.w3.org/2000/svg">
<path d="M15.0561 15.2149C15.4043 14.8865 16.0909 14.5383 17.1257 14.1403C18.1605 13.7423 19.3545 13.4239 20.7376 13.1751C25.1853 12.4288 29.1654 13.6826 32.6877 16.9064L33.1156 16.4786C33.3245 16.2696 33.5534 16.18 33.822 16.19C34.0907 16.1999 34.3096 16.2994 34.4887 16.4786C34.6778 16.6676 34.7773 16.8865 34.7972 17.1651C34.8071 17.4338 34.7176 17.6825 34.5186 17.8815L34.0807 18.3193C35.0161 19.3342 35.7822 20.3989 36.3693 21.5034C36.9563 22.6078 37.3643 23.6725 37.5832 24.7073C37.8021 25.7421 37.9215 26.6974 37.9215 27.573C37.9414 28.4486 37.8718 29.3142 37.7126 30.17C37.5334 31.165 37.2548 32.16 36.8767 33.1152C36.4986 34.0704 36.1703 34.8167 35.8817 35.3241C35.5932 35.8316 35.4539 36.0903 35.4539 36.1102L35.2648 36.2992C35.0857 36.4783 34.8768 36.548 34.6181 36.5281C34.3594 36.5082 34.1504 36.3988 33.9613 36.2097C33.6529 35.9012 33.5434 35.6127 33.623 35.354C33.7225 33.7023 33.3046 32.4286 32.3892 31.5132C32.031 31.1948 31.6032 30.9262 31.1355 30.7172C30.6678 30.5083 30.2499 30.369 29.9017 30.3192C29.5534 30.2496 29.2151 30.2098 28.8868 30.1799C28.5584 30.1501 28.3992 30.1302 28.3793 30.1302C28.0211 30.1103 27.7524 30.0207 27.5932 29.8615C27.3644 29.6326 27.2549 29.4038 27.2549 29.165C27.2549 27.7123 27.036 26.6178 26.5684 25.8516L18.867 33.553L18.6481 33.752L18.3794 33.9411L18.071 34.1301L17.7227 34.2993L17.3247 34.4386L16.8968 34.5281L16.4391 34.5679C15.3446 34.6475 14.3396 34.2197 13.3944 33.2744C12.3894 32.2694 11.9218 31.2247 12.0014 30.1302C12.0014 29.8914 12.0312 29.6625 12.071 29.4436C12.1208 29.2147 12.1805 29.0157 12.27 28.8267C12.3496 28.6476 12.4392 28.4784 12.5287 28.3292C12.6183 28.1799 12.7178 28.0406 12.8272 27.9113C12.9566 27.7421 13.0461 27.6327 13.1257 27.5531C13.2053 27.4735 13.2849 27.3939 13.3546 27.3242C13.4242 27.2546 13.4839 27.2148 13.4939 27.2048C13.673 27.0257 13.9118 26.9461 14.1904 26.966C14.479 26.9959 14.7078 27.1252 14.877 27.374C15.0561 27.5531 15.1158 27.772 15.0859 28.0406C15.0561 28.3093 14.9267 28.558 14.7078 28.7769C14.2401 29.1252 13.9715 29.553 13.9118 30.0705C13.8322 30.568 14.1207 31.155 14.7874 31.8217C15.3048 32.3391 15.8023 32.5978 16.27 32.5878C16.5287 32.5878 16.7874 32.5281 17.0361 32.3988C17.2849 32.2694 17.464 32.15 17.5834 32.0107L17.7625 31.8117L25.0858 24.4884C24.1803 23.9412 23.1555 23.6725 22.0311 23.7024C21.9117 23.7422 21.7525 23.7422 21.5734 23.7024C21.3943 23.6626 21.255 23.6029 21.1655 23.5133C20.9863 23.3342 20.8968 23.0257 20.9067 22.578C20.9963 20.8964 20.5883 19.6128 19.6729 18.7372C19.265 18.3492 18.8272 18.0308 18.3595 17.8218C17.8819 17.6029 17.4938 17.4736 17.1854 17.4238C16.8869 17.384 16.5486 17.3442 16.2003 17.3343C15.8521 17.3243 15.6431 17.3144 15.5934 17.3044C15.2451 17.2348 14.9964 17.1452 14.867 17.0159C14.7377 16.8865 14.6282 16.6577 14.5586 16.3691C14.4989 16.1104 14.5088 15.9014 14.5785 15.7522C14.668 15.6029 14.8272 15.4238 15.0561 15.2149ZM18.5486 15.8815C19.5834 16.1999 20.3893 16.6676 20.9863 17.2646L21.0659 17.3442C22.2102 18.4885 22.8172 19.9711 22.8769 21.8019C23.5833 21.8516 24.3296 22.0208 25.1356 22.3093C25.9316 22.5879 26.6679 23.0257 27.3445 23.6228L27.4241 23.7024C28.5684 24.8466 29.1753 26.3292 29.235 28.16C29.9415 28.2098 30.6877 28.3789 31.4937 28.6675C32.2897 28.9461 33.026 29.3839 33.7026 29.9809L33.7922 30.0705C34.3494 30.6277 34.7872 31.364 35.0957 32.2495C35.5136 30.956 35.7623 30.1103 35.8718 29.7222C36.419 25.6128 35.1156 21.981 31.9713 18.8367C30.3992 17.2646 28.6977 16.1601 26.8569 15.5134C25.0261 14.8766 23.1455 14.7273 21.2252 15.0756C20.658 15.185 19.7525 15.4537 18.5486 15.8815Z" fill="currentColor"/>
<path d="M25.9637 14.0144L17.9889 14.9638L23.1156 22.5589L27.1979 24.1729L29.0018 28.4451L36.1222 33.0971L37.0716 25.1223L33.2741 18.0968L25.9637 14.0144Z" fill="currentColor"/>
</svg>
