<svg version="1.2" xmlns="http://www.w3.org/2000/svg" viewBox="0 0 26 24" width="26" height="24">
	<title>icon_precipitacion</title>
	<style>
		.s0 { fill: #296399 } 
	</style>
	<path class="s0" d="m3.1 2.2q0.5-0.5 2-1.1 1.6-0.6 3.6-0.9 6.7-1.1 12 3.7l0.4-0.4q0.3-0.3 0.7-0.3 0.4 0 0.7 0.3 0.3 0.3 0.3 0.7 0 0.4-0.3 0.7l-0.4 0.4q1.4 1.5 2.3 3.2 0.9 1.7 1.2 3.2 0.3 1.6 0.3 2.9 0.1 1.3-0.2 2.6-0.3 1.5-0.8 2.9-0.6 1.5-1 2.2-0.4 0.8-0.4 0.8l-0.2 0.2q-0.3 0.3-0.7 0.2-0.4 0-0.6-0.3-0.5-0.5-0.4-0.8 0.2-2.5-1.2-3.9-0.6-0.5-1.3-0.8-0.7-0.3-1.2-0.4-0.5-0.1-1-0.1-0.5-0.1-0.5-0.1-0.6 0-0.8-0.2-0.3-0.4-0.3-0.7 0-2.2-0.7-3.3l-7.7 7.7-0.3 0.2-0.2 0.1-0.3 0.2-0.4 0.2-0.4 0.1-0.4 0.1-0.5 0.1q-1.6 0.1-3-1.3-1.5-1.5-1.4-3.2 0-0.3 0.1-0.7 0-0.3 0.2-0.6 0.1-0.2 0.2-0.5 0.2-0.2 0.3-0.4 0.2-0.2 0.3-0.3 0.1-0.2 0.3-0.3 0.1-0.1 0.1-0.1 0.3-0.3 0.7-0.2 0.4 0 0.7 0.4 0.2 0.2 0.2 0.6-0.1 0.4-0.4 0.8-0.7 0.5-0.8 1.3-0.1 0.7 0.9 1.7 0.8 0.8 1.5 0.8 0.4 0 0.7-0.2 0.4-0.2 0.6-0.4l0.2-0.2 7.3-7.3q-1.4-0.8-3.1-0.8-0.2 0.1-0.4 0-0.3-0.1-0.4-0.2-0.3-0.3-0.3-0.9 0.1-2.5-1.2-3.9-0.6-0.6-1.3-0.9-0.8-0.3-1.2-0.4-0.5 0-1-0.1-0.5 0-0.6 0-0.5-0.1-0.7-0.3-0.2-0.2-0.3-0.6-0.1-0.4 0-0.6 0.1-0.3 0.5-0.6zm3.4 0.7q1.6 0.5 2.5 1.4h0.1q1.7 1.8 1.8 4.5 1 0.1 2.2 0.5 1.2 0.4 2.2 1.3l0.1 0.1q1.7 1.7 1.8 4.5 1.1 0 2.3 0.5 1.2 0.4 2.2 1.3l0.1 0.1q0.8 0.8 1.3 2.1 0.6-1.9 0.8-2.5 0.8-6.1-3.9-10.9-2.4-2.3-5.1-3.3-2.8-0.9-5.7-0.4-0.8 0.1-2.7 0.8z"/>
	<path class="s0" d="m14 1l-8 1 5.1 7.6 4.1 1.6 1.8 4.2 7.1 4.7 1-8-3.8-7z"/>
</svg>