<svg width="37" height="35" viewBox="0 0 37 35" fill="none" xmlns="http://www.w3.org/2000/svg">
<path d="M18.1871 6.94489C18.6476 6.94489 19.0892 6.76197 19.4148 6.43637C19.7404 6.11078 19.9233 5.66917 19.9233 5.2087V1.73632C19.9233 1.27585 19.7404 0.834241 19.4148 0.508641C19.0892 0.183042 18.6476 0.00012207 18.1871 0.00012207C17.7267 0.00012207 17.2851 0.183042 16.9595 0.508641C16.6339 0.834241 16.4509 1.27585 16.4509 1.73632V5.2087C16.4509 5.66917 16.6339 6.11078 16.9595 6.43637C17.2851 6.76197 17.7267 6.94489 18.1871 6.94489Z" fill="white"/>
<path d="M7.76997 17.3621C7.76997 16.9016 7.58705 16.46 7.26145 16.1344C6.93585 15.8088 6.49424 15.6259 6.03377 15.6259H2.56139C2.10092 15.6259 1.65931 15.8088 1.33371 16.1344C1.00812 16.46 0.825195 16.9016 0.825195 17.3621C0.825195 17.8225 1.00812 18.2641 1.33371 18.5897C1.65931 18.9153 2.10092 19.0982 2.56139 19.0982H6.03377C6.49424 19.0982 6.93585 18.9153 7.26145 18.5897C7.58705 18.2641 7.76997 17.8225 7.76997 17.3621Z" fill="white"/>
<path d="M8.15233 5.20872C7.81389 4.88869 7.36218 4.71622 6.89657 4.72924C6.43096 4.74227 5.9896 4.93972 5.66957 5.27816C5.34955 5.61661 5.17708 6.06832 5.1901 6.53392C5.20313 6.99953 5.40058 7.44089 5.73902 7.76092L8.23914 10.1742C8.40692 10.3362 8.60561 10.4628 8.82337 10.5463C9.04113 10.6298 9.27348 10.6686 9.50656 10.6604C9.74043 10.6595 9.97172 10.6113 10.1865 10.5188C10.4013 10.4264 10.5952 10.2914 10.7566 10.1221C11.08 9.79684 11.2615 9.3568 11.2615 8.89813C11.2615 8.43945 11.08 7.99941 10.7566 7.67411L8.15233 5.20872Z" fill="white"/>
<path d="M26.8674 10.6603C27.3144 10.6586 27.7436 10.4844 28.0654 10.1742L30.5655 7.76089C30.8705 7.44221 31.0428 7.0194 31.0473 6.57832C31.0519 6.13723 30.8883 5.71096 30.59 5.38607C30.2916 5.06119 29.8808 4.86205 29.4409 4.8291C29.001 4.79615 28.5651 4.93187 28.2217 5.20869L25.7215 7.67408C25.3982 7.99938 25.2167 8.43942 25.2167 8.8981C25.2167 9.35677 25.3982 9.79682 25.7215 10.1221C26.0222 10.4393 26.4313 10.6315 26.8674 10.6603Z" fill="white"/>
<path d="M18.1871 27.7792C17.7267 27.7792 17.2851 27.9621 16.9595 28.2877C16.6339 28.6133 16.4509 29.0549 16.4509 29.5154V32.9878C16.4509 33.4483 16.6339 33.8899 16.9595 34.2155C17.2851 34.5411 17.7267 34.724 18.1871 34.724C18.6476 34.724 19.0892 34.5411 19.4148 34.2155C19.7404 33.8899 19.9233 33.4483 19.9233 32.9878V29.5154C19.9233 29.0549 19.7404 28.6133 19.4148 28.2877C19.0892 27.9621 18.6476 27.7792 18.1871 27.7792Z" fill="white"/>
<path d="M8.2387 24.5499L5.73858 26.9632C5.57585 27.1246 5.44669 27.3166 5.35855 27.5282C5.2704 27.7398 5.22502 27.9667 5.22502 28.1959C5.22502 28.4251 5.2704 28.652 5.35855 28.8636C5.44669 29.0752 5.57585 29.2672 5.73858 29.4286C5.90142 29.5947 6.09599 29.7264 6.31074 29.8159C6.52548 29.9054 6.75601 29.9508 6.98864 29.9494C7.41664 29.9531 7.8309 29.7985 8.15189 29.5154L10.652 27.1021C10.9835 26.7821 11.1744 26.3434 11.1825 25.8827C11.1907 25.422 11.0154 24.9769 10.6954 24.6454C10.3754 24.3138 9.93677 24.123 9.47605 24.1149C9.01532 24.1067 8.57024 24.2819 8.2387 24.602V24.5499Z" fill="white"/>
<path d="M18.1871 10.4173C16.8136 10.4173 15.4709 10.8246 14.3288 11.5877C13.1868 12.3508 12.2966 13.4354 11.771 14.7044C11.2454 15.9734 11.1078 17.3698 11.3758 18.7169C11.6438 20.0641 12.3052 21.3015 13.2764 22.2727C14.2477 23.244 15.4851 23.9054 16.8323 24.1734C18.1794 24.4413 19.5758 24.3038 20.8448 23.7782C22.1138 23.2526 23.1984 22.3624 23.9615 21.2204C24.7246 20.0783 25.1319 18.7356 25.1319 17.3621C25.1319 15.5202 24.4002 13.7538 23.0978 12.4514C21.7954 11.149 20.029 10.4173 18.1871 10.4173Z" fill="white"/>
<mask id="path-2-inside-1_191_521" fill="white">
<path d="M29.4091 14.5277L27.7424 21.7499L36.4646 24.5277L24.4091 34.5277L26.0757 27.3055L17.3535 24.5277L29.4091 14.5277Z"/>
</mask>
<path d="M27.7424 21.7499L16.0497 19.0516L13.5629 29.828L24.101 33.1841L27.7424 21.7499ZM26.0757 27.3055L37.7684 30.0038L40.2553 19.2274L29.7172 15.8713L26.0757 27.3055ZM29.4091 14.5277L41.1018 17.226L49.0897 -17.3882L21.7478 5.29164L29.4091 14.5277ZM36.4646 24.5277L44.1259 33.7638L61.0167 19.753L40.1061 13.0936L36.4646 24.5277ZM17.3535 24.5277L9.69226 15.2916L-7.19854 29.3024L13.7121 35.9619L17.3535 24.5277ZM24.4091 34.5277L12.7164 31.8294L4.72847 66.4437L32.0703 43.7638L24.4091 34.5277ZM29.4091 14.5277L17.7164 11.8294L16.0497 19.0516L27.7424 21.7499L39.4351 24.4482L41.1018 17.226L29.4091 14.5277ZM27.7424 21.7499L24.101 33.1841L32.8232 35.9619L36.4646 24.5277L40.1061 13.0936L31.3839 10.3158L27.7424 21.7499ZM26.0757 27.3055L29.7172 15.8713L20.995 13.0936L17.3535 24.5277L13.7121 35.9619L22.4343 38.7396L26.0757 27.3055ZM24.4091 34.5277L36.1018 37.226L37.7684 30.0038L26.0757 27.3055L14.383 24.6072L12.7164 31.8294L24.4091 34.5277ZM17.3535 24.5277L25.0148 33.7638L37.0703 23.7638L29.4091 14.5277L21.7478 5.29164L9.69226 15.2916L17.3535 24.5277ZM36.4646 24.5277L28.8034 15.2916L16.7478 25.2916L24.4091 34.5277L32.0703 43.7638L44.1259 33.7638L36.4646 24.5277Z" fill="white" mask="url(#path-2-inside-1_191_521)"/>
<path d="M29.8535 14.0277L14.8535 26.0277" stroke="#121E3D" stroke-width="2"/>
</svg>
